<?xml version="1.0" standalone="no"?>
<!DOCTYPE svg PUBLIC "-//W3C//DTD SVG 20010904//EN"
 "http://www.w3.org/TR/2001/REC-SVG-20010904/DTD/svg10.dtd">
<svg version="1.0" xmlns="http://www.w3.org/2000/svg"
 width="800.000000pt" height="800.000000pt" viewBox="0 0 800.000000 800.000000"
 preserveAspectRatio="xMidYMid meet">

<g transform="translate(0.000000,800.000000) scale(0.100000,-0.100000)"
fill="#000000" stroke="none">
<path d="M0 4000 l0 -4000 4000 0 4000 0 0 4000 0 4000 -4000 0 -4000 0 0
-4000z m4125 2785 c50 -8 115 -19 145 -25 30 -7 71 -15 90 -19 52 -11 174 -49
266 -83 72 -26 86 -28 122 -19 23 6 59 16 81 21 53 14 89 13 160 -6 108 -27
160 -56 371 -209 15 -11 40 -29 56 -39 139 -94 461 -419 546 -552 40 -63 97
-179 107 -221 6 -21 31 -105 56 -188 63 -206 108 -356 134 -445 11 -41 37
-129 56 -196 19 -66 35 -127 35 -135 0 -8 22 -40 49 -71 79 -92 86 -124 86
-388 0 -124 -3 -250 -7 -281 l-8 -55 108 4 c104 4 109 3 199 -32 51 -20 98
-36 104 -36 24 0 138 -123 159 -173 20 -46 22 -63 18 -167 -7 -149 -29 -209
-111 -297 -45 -48 -79 -72 -141 -102 -95 -46 -177 -121 -252 -231 -111 -165
-133 -200 -193 -310 -35 -63 -70 -123 -78 -132 -9 -10 -25 -39 -38 -65 -12
-26 -42 -82 -67 -123 -134 -226 -158 -271 -177 -334 -14 -45 -21 -96 -21 -150
0 -168 -86 -319 -215 -378 -63 -28 -177 -31 -245 -6 -25 9 -70 23 -101 32 -78
22 -145 84 -198 183 l-42 78 4 -45 c3 -25 17 -74 32 -109 43 -101 44 -160 5
-277 -28 -83 -41 -107 -83 -151 -73 -78 -112 -93 -235 -93 -75 0 -119 5 -169
21 -38 12 -90 28 -118 37 -35 10 -65 30 -102 66 -61 61 -78 112 -89 259 l-6
98 -87 -8 c-263 -24 -989 13 -1276 66 -27 5 -88 16 -135 24 -466 79 -964 350
-1220 662 -31 39 -81 113 -110 165 -30 52 -70 115 -90 140 -113 138 -150 286
-171 670 -15 283 -23 340 -49 385 -29 48 -79 116 -154 210 -90 111 -98 152
-92 438 2 128 5 239 5 247 0 8 -2 59 -5 113 -7 123 -1 159 38 203 45 51 63 58
172 64 l98 5 30 120 c27 111 71 279 118 452 11 39 20 102 20 140 0 89 13 131
68 228 68 118 417 470 644 650 123 97 169 128 264 175 144 72 208 81 346 48
42 -10 54 -9 130 19 136 49 239 80 308 93 36 6 83 15 105 20 53 12 195 30 270
34 106 6 387 -5 480 -19z"/>
<path d="M3640 6654 c-75 -6 -213 -25 -250 -34 -19 -5 -62 -14 -95 -20 -33 -6
-69 -15 -80 -19 -11 -5 -47 -16 -80 -25 -33 -10 -71 -22 -85 -28 -14 -6 -34
-14 -45 -18 -11 -4 -33 -13 -48 -19 -35 -14 -120 -14 -166 0 -78 23 -87 25
-116 16 -16 -5 -53 -20 -80 -33 -28 -13 -56 -24 -63 -24 -6 0 -12 -4 -12 -9 0
-5 -10 -11 -23 -15 -12 -3 -32 -14 -44 -26 -12 -11 -27 -20 -33 -20 -5 0 -10
-3 -10 -7 0 -5 -21 -21 -45 -38 -25 -16 -45 -33 -45 -37 0 -5 -5 -8 -11 -8 -6
0 -23 -12 -38 -27 -16 -16 -50 -46 -77 -68 -94 -77 -449 -441 -469 -480 -10
-22 -28 -53 -39 -70 -17 -24 -21 -50 -24 -135 -2 -58 -8 -109 -13 -115 -5 -5
-9 -19 -9 -32 0 -13 -4 -23 -10 -23 -5 0 -10 -12 -10 -26 0 -14 -7 -49 -15
-77 -9 -29 -20 -65 -24 -82 -5 -16 -13 -48 -19 -70 -43 -157 -94 -379 -99
-437 -3 -27 -9 -48 -14 -48 -5 0 -9 -7 -9 -15 0 -9 -11 -27 -25 -41 -22 -22
-27 -23 -40 -10 -8 8 -15 24 -15 35 0 11 -4 23 -10 26 -5 3 -10 16 -10 29 0
36 -19 46 -93 46 l-69 0 6 -97 c3 -54 8 -118 12 -142 4 -28 2 -46 -5 -51 -15
-9 -17 -423 -1 -428 5 -2 10 -12 10 -23 0 -11 8 -32 17 -47 17 -26 28 -38 81
-97 12 -13 22 -29 22 -34 0 -5 3 -11 8 -13 12 -5 62 -76 62 -87 0 -6 5 -11 10
-11 6 0 10 -7 10 -15 0 -8 4 -15 9 -15 24 0 43 -146 60 -460 9 -180 25 -325
41 -365 4 -11 13 -38 20 -59 7 -22 25 -60 41 -85 16 -25 32 -54 35 -63 3 -10
15 -20 25 -23 10 -4 22 -17 25 -31 3 -13 10 -24 15 -24 5 0 9 -9 9 -20 0 -11
4 -20 9 -20 5 0 12 -14 16 -30 4 -17 11 -30 16 -30 5 0 9 -5 9 -10 0 -6 5 -16
10 -23 6 -7 24 -30 41 -52 88 -116 104 -133 154 -170 22 -17 42 -32 45 -35 3
-4 23 -19 45 -36 22 -16 49 -37 59 -46 11 -10 28 -20 38 -24 10 -3 18 -10 18
-15 0 -5 7 -9 15 -9 8 0 15 -4 15 -10 0 -5 7 -10 15 -10 8 0 15 -4 15 -9 0 -5
14 -12 30 -16 17 -4 30 -11 30 -16 0 -5 9 -9 19 -9 11 0 21 -3 23 -8 4 -10
225 -118 258 -127 14 -3 35 -10 48 -16 12 -5 32 -13 45 -18 12 -6 42 -13 67
-17 25 -3 50 -10 55 -14 11 -8 45 -16 157 -33 42 -7 80 -15 84 -20 4 -4 33 -7
65 -7 32 0 61 -4 64 -10 3 -5 29 -10 56 -10 31 0 48 4 44 10 -3 6 -15 10 -26
10 -13 0 -18 4 -13 11 5 9 60 10 208 4 111 -4 244 -8 296 -8 133 0 505 23 543
34 18 5 49 9 70 9 21 0 46 4 55 9 9 4 43 11 75 15 l57 6 0 -37 c0 -21 9 -72
20 -113 12 -41 27 -137 34 -213 18 -175 30 -195 139 -221 l28 -7 -17 32 c-9
19 -21 86 -30 168 -7 75 -23 169 -34 210 -24 89 -25 130 -5 198 8 27 14 79 13
114 -1 35 2 129 6 209 9 156 -7 532 -25 612 -17 74 -28 78 -112 33 -83 -45
-177 -106 -225 -147 -18 -16 -61 -46 -95 -68 -44 -29 -75 -59 -107 -106 -74
-109 -91 -124 -145 -124 -113 0 -191 102 -160 208 20 66 65 106 150 133 65 21
107 45 380 222 39 25 104 62 146 81 106 50 114 61 114 155 0 95 16 123 90 157
l53 25 67 -22 67 -22 56 21 c67 24 148 57 212 84 27 11 55 33 69 54 13 19 51
52 85 75 58 39 63 40 116 34 61 -8 94 -31 116 -83 17 -38 11 -71 -23 -130 -20
-36 -37 -49 -97 -76 -39 -18 -94 -49 -121 -68 -53 -36 -163 -91 -205 -102 -51
-12 -54 -18 -37 -88 13 -57 13 -68 -1 -93 -11 -22 -13 -50 -9 -119 4 -73 14
-117 51 -226 58 -166 117 -370 112 -378 -2 -4 -22 -15 -43 -26 -21 -10 -46
-22 -55 -27 -10 -5 -23 -9 -30 -9 -18 -1 -53 -28 -46 -36 4 -3 21 1 40 9 137
60 145 62 151 40 16 -56 18 -83 6 -83 -9 0 -7 -4 3 -13 9 -6 22 -32 28 -57 21
-78 70 -220 91 -263 47 -94 99 -137 164 -137 l26 0 -24 32 c-58 78 -103 201
-177 493 -26 104 -76 273 -110 375 -53 157 -63 199 -67 275 -5 85 -4 93 18
118 13 14 46 38 73 52 44 22 58 25 110 19 89 -9 126 -54 126 -151 0 -17 5 -35
10 -38 9 -5 74 27 90 45 3 3 23 19 45 35 78 58 154 123 171 145 7 8 22 26 34
40 44 49 143 204 133 207 -6 2 -4 17 6 38 14 30 21 34 54 35 20 0 37 -3 37 -6
0 -11 -65 -99 -110 -149 -25 -28 -63 -84 -84 -125 -21 -41 -44 -82 -51 -90 -7
-8 -18 -33 -25 -55 -18 -58 -61 -141 -114 -219 -44 -65 -80 -136 -121 -234
-21 -50 -11 -85 29 -104 34 -15 73 11 92 60 36 92 73 163 127 244 59 90 107
182 107 209 0 8 12 35 28 60 15 25 37 65 50 89 12 25 40 68 62 95 22 28 55 70
72 94 69 91 211 269 273 341 36 41 86 99 112 128 66 76 107 104 172 118 l56
12 -40 17 c-28 12 -59 16 -111 13 -68 -3 -75 -6 -130 -49 -33 -25 -80 -73
-105 -107 -25 -33 -65 -82 -87 -109 -35 -40 -40 -43 -32 -20 16 45 30 68 77
125 47 58 54 82 24 82 -11 0 -26 3 -35 6 -10 4 -20 -5 -30 -31 -9 -21 -16 -46
-16 -56 0 -11 -4 -19 -9 -19 -5 0 -11 -12 -14 -27 -18 -89 -34 -133 -66 -178
l-36 -50 -3 55 c-7 108 58 323 117 389 30 34 27 51 -9 51 -16 0 -30 4 -30 9 0
4 -21 11 -46 14 -25 2 -49 9 -54 13 -10 11 2 570 13 580 3 4 13 1 22 -6 9 -7
19 -10 22 -6 4 4 1 11 -7 16 -8 6 -10 10 -5 10 15 0 29 -12 49 -40 17 -25 17
-24 14 53 -2 42 1 77 5 77 15 0 87 -84 93 -108 4 -13 9 -87 13 -165 l6 -142 8
135 c11 179 0 229 -60 287 -45 44 -59 51 -65 32 -3 -10 -11 3 -36 61 -6 14
-14 48 -17 75 -4 28 -20 90 -36 140 -16 49 -29 97 -29 107 0 10 -4 18 -10 18
-5 0 -10 6 -10 14 0 18 -36 10 -44 -9 -3 -8 10 -58 28 -112 38 -113 56 -183
56 -218 0 -14 5 -25 10 -25 13 0 13 -27 0 -35 -30 -18 -70 28 -70 80 0 14 -4
25 -9 25 -4 0 -11 27 -15 60 -4 33 -11 62 -16 65 -6 4 -10 17 -10 31 0 13 -4
24 -10 24 -5 0 -10 11 -10 25 0 17 -6 25 -17 25 -13 0 -14 -3 -5 -12 7 -7 12
-22 12 -34 0 -12 10 -50 21 -85 19 -58 36 -129 42 -184 1 -12 -4 -20 -13 -20
-11 0 -16 13 -18 48 -2 26 -7 47 -11 47 -5 0 -11 17 -14 39 -5 40 -42 171 -58
206 -5 11 -20 38 -34 60 -13 22 -24 48 -25 58 0 9 -3 17 -8 17 -4 0 -16 20
-27 45 -11 25 -23 45 -27 45 -5 0 -8 7 -8 15 0 8 -3 15 -7 15 -5 0 -21 25 -37
55 -16 30 -32 55 -37 55 -5 0 -9 6 -9 13 0 7 -10 24 -22 37 -29 32 -68 87 -68
95 0 3 -11 16 -25 29 -14 13 -25 26 -25 30 0 7 -13 24 -47 61 -29 31 -30 65
-3 65 12 0 24 -10 30 -22 5 -13 21 -36 35 -53 15 -16 39 -48 54 -70 14 -22 34
-49 43 -59 10 -11 20 -28 24 -38 3 -10 10 -18 15 -18 5 0 9 -5 9 -11 0 -7 8
-19 18 -28 17 -16 37 -50 76 -126 11 -22 23 -42 26 -45 4 -3 28 -49 54 -102
26 -54 53 -98 60 -98 7 0 31 19 55 41 40 38 42 45 38 83 -7 57 -26 137 -37
158 -6 10 -10 27 -10 38 0 11 -4 20 -10 20 -5 0 -10 8 -10 18 0 19 -16 64 -48
135 -12 27 -22 53 -22 58 0 5 -4 9 -9 9 -5 0 -17 18 -27 40 -10 21 -21 37 -26
34 -4 -3 -8 0 -8 6 0 7 -7 10 -15 6 -8 -3 -15 -1 -15 4 0 6 -9 10 -21 10 -19
0 -19 1 -4 16 29 29 67 10 123 -61 12 -16 22 -25 22 -19 0 11 -28 54 -46 69
-6 6 -31 37 -55 70 -24 33 -55 71 -69 84 -14 12 -65 60 -113 105 -48 44 -101
93 -117 109 -16 15 -31 27 -34 27 -6 0 -44 31 -72 58 -7 6 -15 12 -19 12 -6 0
-12 4 -70 55 -22 19 -49 38 -59 41 -11 4 -37 19 -59 35 -22 16 -46 29 -54 29
-7 0 -13 5 -13 10 0 6 -7 10 -15 10 -8 0 -15 4 -15 9 0 5 -14 13 -32 16 -17 4
-47 16 -67 27 -35 20 -40 20 -159 2 -23 -3 -45 -10 -48 -15 -7 -12 -61 -11
-69 1 -8 13 -25 13 -25 -1 0 -6 9 -13 20 -16 11 -3 20 -9 20 -14 0 -12 44 -11
56 1 6 6 42 13 80 17 54 4 78 1 112 -13 23 -10 42 -22 42 -26 0 -5 7 -8 16 -8
14 0 71 -27 84 -40 3 -3 21 -14 40 -24 19 -10 44 -26 55 -36 11 -9 47 -34 80
-56 33 -21 62 -41 65 -45 3 -3 23 -18 44 -35 22 -16 57 -45 77 -64 120 -113
146 -138 164 -164 11 -16 26 -34 33 -40 47 -40 62 -59 62 -77 0 -19 -2 -19
-21 -5 -12 8 -28 12 -35 9 -13 -5 -18 7 -15 35 1 7 -4 12 -11 11 -28 -3 -39 2
-70 37 -47 52 -52 57 -82 79 -15 11 -53 43 -84 72 -83 76 -88 80 -114 93 -13
7 -32 23 -43 35 -11 12 -30 25 -42 29 -13 4 -23 12 -23 17 0 5 -7 9 -15 9 -8
0 -15 3 -15 8 0 4 -17 15 -39 25 -21 10 -50 29 -66 43 -15 13 -36 26 -46 29
-11 4 -19 11 -19 16 0 6 -4 7 -10 4 -5 -3 -23 1 -39 9 -64 34 -155 28 -120 -7
8 -8 29 -22 46 -30 17 -9 57 -46 89 -82 32 -36 66 -65 76 -65 10 0 18 -4 18
-8 0 -5 23 -23 50 -41 28 -18 56 -38 63 -45 6 -6 30 -25 51 -41 22 -17 56 -46
76 -65 20 -19 58 -54 83 -77 47 -42 62 -83 31 -83 -8 0 -46 25 -84 55 -86 69
-100 71 -29 5 30 -27 57 -50 61 -50 12 0 10 -28 -2 -35 -10 -6 -17 -2 -74 50
-97 88 -139 125 -145 125 -3 0 -18 11 -33 25 -18 17 -39 25 -63 25 -19 0 -35
4 -35 9 0 5 -13 12 -30 16 -16 4 -30 11 -30 16 0 5 -9 9 -20 9 -11 0 -20 5
-20 10 0 6 -4 10 -10 10 -5 0 -51 20 -101 45 -51 25 -98 45 -105 45 -8 0 -14
4 -14 10 0 5 -18 13 -40 16 -22 4 -40 10 -40 15 0 5 -11 9 -25 9 -14 0 -25 4
-25 9 0 5 -20 12 -45 15 -24 4 -47 11 -50 17 -4 5 -17 9 -30 9 -13 0 -27 5
-30 10 -3 6 -22 10 -41 10 -19 0 -34 4 -34 9 0 4 -19 11 -42 14 -24 4 -86 13
-138 22 -355 58 -699 36 -1067 -68 -29 -8 -79 -18 -112 -22 -34 -4 -64 -11
-67 -16 -3 -5 -23 -9 -45 -9 -21 0 -39 -4 -39 -9 0 -5 -22 -11 -50 -15 -27 -4
-52 -11 -55 -16 -3 -6 -17 -10 -30 -10 -13 0 -27 -4 -30 -10 -3 -5 -15 -10
-25 -10 -10 0 -39 -9 -63 -19 -25 -11 -47 -17 -50 -15 -5 5 16 70 26 80 4 4 7
13 7 20 0 26 121 130 183 156 15 7 27 16 27 20 0 4 4 8 10 8 8 0 63 33 95 57
22 17 166 83 180 83 8 0 15 4 15 8 0 10 93 42 121 42 11 0 19 5 19 10 0 6 10
10 23 10 13 0 27 4 32 9 6 5 39 14 75 21 36 7 88 16 115 22 80 15 233 30 315
30 116 1 391 -31 443 -51 16 -6 39 -11 53 -11 13 0 24 -4 24 -9 0 -5 12 -11
28 -14 49 -10 112 -27 130 -36 40 -21 73 -31 165 -56 107 -28 147 -44 147 -57
0 -4 9 -8 20 -8 11 0 20 5 20 10 0 6 10 10 23 10 13 0 51 11 85 25 42 17 71
23 91 19 20 -4 31 -2 31 5 0 6 12 11 28 11 15 0 34 4 42 10 12 8 12 10 -3 16
-9 3 -17 10 -17 15 0 5 16 1 35 -8 27 -13 32 -19 23 -30 -6 -7 -9 -16 -6 -18
3 -3 11 2 19 11 14 17 15 15 -58 74 -7 6 -15 10 -18 10 -4 0 -13 7 -21 15 -9
8 -26 15 -40 15 -13 0 -24 5 -24 10 0 6 -11 10 -24 10 -14 0 -28 5 -31 10 -3
6 -24 10 -45 10 -21 0 -42 -4 -45 -10 -3 -5 -24 -10 -46 -10 -21 0 -39 -5 -39
-11 0 -7 -21 -9 -62 -6 -81 7 -128 17 -128 28 0 5 -9 9 -19 9 -11 0 -22 4 -26
9 -3 6 -26 13 -50 17 -25 3 -48 10 -51 15 -3 5 -14 9 -25 9 -10 0 -27 4 -37 9
-9 5 -44 14 -77 21 -33 6 -76 15 -95 20 -111 26 -424 46 -560 34z m-1300 -473
c0 -5 -27 -28 -61 -52 -33 -24 -74 -56 -91 -71 -16 -16 -34 -28 -39 -28 -5 0
-32 -23 -61 -50 -47 -44 -71 -66 -132 -118 -9 -7 -16 -9 -16 -4 0 13 151 150
217 197 15 11 37 29 48 40 20 20 51 42 104 77 30 21 31 21 31 9z m-36 -150 c9
-14 -4 -41 -20 -41 -7 0 -17 -6 -21 -14 -4 -7 -19 -16 -33 -19 -14 -3 -35 -9
-47 -12 -38 -12 -25 8 35 52 59 43 77 50 86 34z m2716 -237 c0 -8 -9 -14 -20
-14 -22 0 -26 10 -8 28 13 13 28 7 28 -14z m70 16 c0 -5 -7 -10 -16 -10 -8 0
-12 5 -9 10 3 6 10 10 16 10 5 0 9 -4 9 -10z m-247 -37 c-7 -2 -19 -2 -25 0
-7 3 -2 5 12 5 14 0 19 -2 13 -5z m-1746 -263 c2 0 3 -22 3 -48 0 -36 -5 -51
-20 -62 -11 -8 -20 -20 -20 -27 0 -7 -9 -13 -19 -13 -11 0 -26 -3 -35 -6 -11
-4 -19 2 -26 21 -5 14 -15 23 -20 20 -6 -4 -17 -4 -25 -1 -18 7 -4 44 33 91
29 35 56 45 97 33 16 -4 31 -8 32 -8z m260 -262 c-3 -8 -6 -5 -6 6 -1 11 2 17
5 13 3 -3 4 -12 1 -19z m505 -80 c-12 -12 -35 -1 -27 12 3 5 13 6 21 3 10 -4
12 -9 6 -15z m-82 -48 c0 -5 -4 -10 -9 -10 -6 0 -13 5 -16 10 -3 6 1 10 9 10
9 0 16 -4 16 -10z m470 -211 c0 -25 -25 -35 -45 -19 -22 18 -18 38 8 42 30 5
37 1 37 -23z m1675 -80 c4 -27 11 -49 16 -49 5 0 9 -13 9 -30 0 -16 4 -30 8
-30 13 0 33 -143 22 -154 -10 -10 -30 33 -30 64 0 10 -18 73 -40 139 -22 67
-38 127 -34 132 12 21 42 -23 49 -72z m-3148 -21 c-3 -8 -6 -5 -6 6 -1 11 2
17 5 13 3 -3 4 -12 1 -19z m-902 -117 c-4 -39 -11 -71 -16 -71 -5 0 -9 -9 -9
-20 0 -11 -4 -20 -10 -20 -5 0 -10 20 -10 44 0 25 5 48 10 51 6 3 10 19 10 36
0 16 5 29 10 29 6 0 10 8 10 17 0 9 3 14 6 10 3 -3 3 -38 -1 -76z m1966 43
c14 -13 16 -20 7 -40 -16 -35 -65 -34 -74 1 -12 47 31 71 67 39z m99 -124 c0
-5 -7 -10 -15 -10 -8 0 -15 5 -15 10 0 6 7 10 15 10 8 0 15 -4 15 -10z m1900
-132 c0 -18 -2 -20 -9 -8 -6 8 -7 18 -5 22 9 14 14 9 14 -14z m195 -140 c3
-57 5 -191 3 -298 -3 -176 -5 -195 -20 -198 -17 -3 -18 15 -18 281 0 157 3
292 6 301 14 36 22 10 29 -86z m-1555 88 c0 -2 3 -11 6 -20 5 -12 0 -16 -20
-16 -24 0 -35 18 -19 33 7 8 33 10 33 3z m-1805 -76 c3 -5 1 -10 -4 -10 -6 0
-11 5 -11 10 0 6 2 10 4 10 3 0 8 -4 11 -10z m-82 -36 c16 -17 27 -22 31 -15
9 14 26 5 26 -15 0 -8 -10 -14 -22 -14 -15 0 -29 -11 -40 -30 -31 -54 -88 -32
-88 34 0 25 6 39 22 50 31 22 43 20 71 -10z m830 5 c-6 -6 -19 -9 -29 -6 -16
4 -15 5 4 6 12 0 22 6 22 13 0 6 3 8 7 5 4 -4 2 -12 -4 -18z m1467 -89 c0 -11
-7 -20 -15 -20 -8 0 -15 9 -15 20 0 11 7 20 15 20 8 0 15 -9 15 -20z m-154
-50 c19 0 34 5 34 10 0 6 9 10 19 10 11 0 23 -4 26 -10 3 -5 27 -10 52 -10 36
0 44 -3 39 -15 -3 -10 1 -15 13 -15 21 0 101 -69 101 -88 0 -6 3 -12 8 -12 25
0 55 -261 33 -283 -6 -6 -11 -17 -11 -25 0 -18 -30 -83 -46 -100 -7 -6 -15
-21 -19 -31 -3 -10 -15 -21 -26 -24 -12 -3 -18 -10 -15 -15 9 -15 -4 -42 -19
-42 -7 0 -15 5 -17 11 -2 7 -16 4 -38 -10 -26 -15 -52 -21 -97 -21 -36 0 -63
4 -63 10 0 6 -7 10 -15 10 -8 0 -15 5 -15 10 0 6 -7 10 -16 10 -21 0 -111 91
-125 127 -38 98 -53 232 -28 258 5 5 9 17 9 27 0 25 90 157 112 164 10 3 18
10 18 15 0 5 7 9 15 9 8 0 15 8 15 18 0 22 13 38 18 23 2 -6 19 -11 38 -11z
m1156 -144 c-9 -18 -11 -16 -11 19 0 33 1 37 10 21 8 -12 8 -25 1 -40z m-1537
-58 c22 -10 26 -17 23 -47 -3 -35 -4 -36 -50 -39 -39 -3 -47 0 -53 17 -11 37
8 65 52 80 1 1 14 -4 28 -11z m-465 -178 c0 -5 -2 -10 -4 -10 -3 0 -8 5 -11
10 -3 6 -1 10 4 10 6 0 11 -4 11 -10z m600 -45 c0 -8 -4 -15 -10 -15 -5 0 -10
7 -10 15 0 8 5 15 10 15 6 0 10 -7 10 -15z m1480 -4 c3 -3 23 -15 45 -26 21
-11 48 -35 58 -53 19 -32 19 -35 2 -72 -10 -22 -26 -42 -36 -45 -11 -4 -19
-11 -19 -16 0 -5 -8 -9 -19 -9 -13 0 -24 14 -36 48 -10 26 -22 51 -26 57 -5 5
-9 15 -9 22 0 8 -9 32 -20 55 -11 22 -17 45 -14 50 6 9 65 1 74 -11z m-2712
-77 c4 -27 -21 -47 -48 -39 -14 4 -20 15 -20 36 0 28 2 30 33 27 24 -2 33 -8
35 -24z m-708 -24 c0 -5 -5 -10 -11 -10 -5 0 -7 5 -4 10 3 6 8 10 11 10 2 0 4
-4 4 -10z m2511 -78 c-13 -24 -40 -46 -47 -39 -6 5 43 57 53 57 2 0 -1 -8 -6
-18z m-2416 -282 c-3 -5 -10 -10 -16 -10 -5 0 -9 5 -9 10 0 6 7 10 16 10 8 0
12 -4 9 -10z m3237 -45 c-6 -29 -74 -167 -94 -189 -10 -11 -18 -23 -18 -27 0
-5 -11 -19 -25 -33 -14 -14 -25 -29 -25 -33 0 -10 -140 -143 -151 -143 -18 0
-10 13 39 65 12 13 22 28 22 32 0 5 10 19 23 33 34 37 117 163 117 177 0 7 5
13 10 13 6 0 10 7 10 15 0 8 4 15 9 15 5 0 12 14 16 30 4 17 11 30 16 30 5 0
9 9 9 21 0 15 5 20 23 17 16 -2 21 -9 19 -23z m-3112 -179 c0 -3 -4 -8 -10
-11 -5 -3 -10 -1 -10 4 0 6 5 11 10 11 6 0 10 -2 10 -4z m-662 -377 c2 -5 11
-9 19 -9 9 0 24 -9 34 -21 11 -12 23 -18 30 -13 9 5 10 2 6 -11 -6 -14 -3 -16
14 -12 16 4 19 2 15 -10 -5 -12 -1 -14 19 -11 15 3 25 1 25 -7 0 -13 62 -45
89 -45 10 0 25 -8 35 -18 9 -11 41 -25 71 -32 30 -7 55 -17 55 -22 0 -4 9 -8
20 -8 10 0 36 -7 57 -16 21 -9 49 -21 63 -27 14 -5 32 -13 40 -17 9 -4 30 -11
48 -14 17 -4 34 -12 37 -17 4 -5 15 -9 26 -9 10 0 19 -4 19 -10 0 -5 9 -10 20
-10 11 0 20 -4 20 -8 0 -4 14 -13 32 -20 17 -6 29 -14 26 -18 -6 -6 -99 19
-121 33 -21 14 -141 55 -174 60 -18 3 -33 9 -33 14 0 5 -9 9 -19 9 -11 0 -23
5 -26 10 -3 6 -15 10 -25 10 -22 0 -93 31 -98 43 -2 4 -10 7 -18 7 -8 0 -22 4
-32 9 -9 5 -44 22 -77 38 -33 15 -61 31 -63 36 -2 4 -10 7 -18 7 -8 0 -14 4
-14 9 0 5 -10 11 -22 15 -13 3 -35 16 -50 29 -15 13 -38 32 -52 43 -14 10 -26
22 -26 27 0 10 44 -3 48 -14z m-118 -190 c0 -5 -7 -9 -15 -9 -8 0 -15 7 -15
15 0 9 6 12 15 9 8 -4 15 -10 15 -15z m393 -153 c18 -7 55 -21 82 -31 28 -9
61 -22 74 -28 13 -7 46 -11 73 -10 48 1 48 1 48 -30 0 -25 -6 -35 -27 -44 -15
-7 -35 -13 -45 -13 -10 0 -18 -4 -18 -10 0 -5 -7 -10 -15 -10 -12 0 -15 -17
-15 -95 0 -95 3 -101 36 -88 17 6 17 7 0 13 -14 4 -18 20 -21 69 -3 41 0 68 8
76 21 20 291 1 305 -22 4 -6 31 -9 60 -8 28 2 52 -1 52 -6 0 -16 29 -10 50 11
11 11 29 20 39 20 18 0 20 -9 23 -86 3 -84 2 -87 -26 -115 -44 -43 -56 -38
-57 24 -1 103 -12 129 -44 116 l-20 -8 20 0 c18 -1 20 -9 22 -84 2 -45 0 -77
-5 -72 -4 6 -29 11 -57 13 -27 1 -72 5 -100 9 -27 4 -54 6 -59 4 -4 -1 -14 6
-22 16 -9 13 -13 14 -14 4 0 -10 -11 -12 -42 -8 -118 16 -128 16 -139 -4 -5
-10 -18 -19 -28 -19 -16 0 -20 14 -31 114 l-13 113 -41 18 c-23 10 -43 21 -46
24 -3 4 -30 17 -60 31 -30 14 -57 28 -60 31 -3 3 -18 11 -35 17 -26 9 -23 10
21 5 47 -5 53 -3 59 16 3 12 15 21 26 21 24 0 25 27 2 33 -10 3 -12 5 -5 6 8
0 28 -5 45 -13z m2173 -188 c-3 -90 -9 -186 -12 -215 l-6 -51 -67 -12 c-36 -6
-97 -14 -136 -17 -38 -2 -74 -9 -80 -14 -12 -12 -175 -12 -175 0 0 5 6 14 14
20 11 9 15 9 19 -1 4 -8 6 -7 6 5 1 19 -14 21 -151 17 -78 -2 -78 -2 -78 24 0
14 -4 26 -10 26 -5 0 -10 -12 -10 -26 0 -19 -4 -25 -17 -22 -15 3 -18 14 -18
57 0 29 3 55 8 58 4 2 21 2 37 -2 21 -5 30 -12 28 -23 -2 -12 5 -18 27 -20 72
-6 72 42 1 52 -28 5 -46 12 -46 21 0 7 -7 15 -15 19 -8 3 -15 14 -15 24 0 11
-7 25 -15 32 -21 18 -19 28 8 32 12 2 -32 7 -98 12 -327 20 -360 24 -500 58
-22 5 -56 12 -75 16 -74 13 73 19 360 14 183 -3 339 -1 440 7 233 19 495 53
508 65 3 3 21 6 40 6 l35 0 -7 -162z m-806 -34 c0 -8 -4 -12 -10 -9 -5 3 -10
10 -10 16 0 5 5 9 10 9 6 0 10 -7 10 -16z m-976 -230 c11 -28 6 -54 -9 -54 -8
0 -15 6 -15 13 0 6 -3 22 -6 35 -7 26 20 32 30 6z m1762 -88 c-12 -41 -21 -56
-34 -56 -10 0 -22 -4 -27 -9 -6 -5 -63 -12 -129 -16 -106 -6 -118 -5 -113 10
5 13 3 14 -13 5 -10 -5 -34 -8 -52 -6 -18 3 -36 5 -40 5 -16 2 -7 30 10 33 9
2 -53 2 -138 0 -157 -4 -202 3 -75 12 108 7 250 23 355 40 52 9 112 16 133 16
20 0 37 4 37 9 0 8 87 20 98 14 2 -1 -3 -27 -12 -57z m-714 -33 c-18 -4 -21
-7 -12 -18 14 -17 10 -57 -6 -62 -6 -2 -14 6 -18 19 -6 22 -7 23 -21 4 -12
-16 -15 -17 -15 -4 0 27 43 68 70 66 24 -1 24 -1 2 -5z m240 -35 c-9 -9 -15
-9 -24 0 -9 9 -7 12 12 12 19 0 21 -3 12 -12z"/>
<path d="M2918 2093 c6 -2 18 -2 25 0 6 3 1 5 -13 5 -14 0 -19 -2 -12 -5z"/>
<path d="M2910 2050 c0 -5 5 -10 11 -10 5 0 7 5 4 10 -3 6 -8 10 -11 10 -2 0
-4 -4 -4 -10z"/>
<path d="M2780 1991 c0 -6 5 -13 10 -16 6 -3 10 1 10 9 0 9 -4 16 -10 16 -5 0
-10 -4 -10 -9z"/>
<path d="M3915 1939 c-16 -6 -14 -8 13 -8 33 -1 41 4 20 12 -7 2 -22 1 -33 -4z"/>
<path d="M4152 1918 c-7 -7 -12 -18 -12 -25 0 -10 8 -9 35 4 19 9 32 20 29 25
-8 12 -38 10 -52 -4z"/>
<path d="M4494 6325 c11 -8 14 -15 8 -15 -23 0 -12 -30 13 -36 29 -7 56 -34
33 -34 -8 0 -19 5 -26 12 -9 9 -15 9 -24 0 -9 -9 -7 -12 9 -12 11 0 23 -7 27
-15 3 -8 12 -15 20 -15 21 0 40 -37 23 -44 -7 -3 -3 -7 10 -11 13 -4 20 -12
16 -21 -3 -8 1 -14 11 -14 9 0 16 -4 16 -9 0 -5 15 -13 33 -16 17 -4 39 -13
47 -20 22 -18 181 -95 197 -95 7 0 13 -4 13 -10 0 -5 7 -10 15 -10 8 0 15 -4
15 -10 0 -5 8 -10 18 -10 10 0 27 -7 38 -15 40 -30 42 -13 6 58 -58 114 -128
175 -314 272 -21 11 -38 23 -38 27 0 5 -9 8 -19 8 -11 0 -23 5 -26 10 -3 6
-14 10 -23 10 -9 0 -30 7 -46 15 -15 8 -38 15 -50 15 -21 -1 -21 -1 -2 -15z"/>
<path d="M5180 6320 c0 -5 5 -10 10 -10 6 0 10 5 10 10 0 6 -4 10 -10 10 -5 0
-10 -4 -10 -10z"/>
<path d="M5220 5800 c18 -16 39 -30 48 -30 8 0 -4 14 -26 30 -23 17 -45 30
-48 30 -3 0 8 -13 26 -30z"/>
</g>
</svg>
